<?xml version="1.0" standalone="no"?>
<!DOCTYPE svg PUBLIC "-//W3C//DTD SVG 20010904//EN"
 "http://www.w3.org/TR/2001/REC-SVG-20010904/DTD/svg10.dtd">
<svg version="1.0" xmlns="http://www.w3.org/2000/svg"
 width="2000.000000pt" height="2000.000000pt" viewBox="0 0 2000.000000 2000.000000"
 preserveAspectRatio="xMidYMid meet">
<metadata>
Created by potrace 1.11, written by Peter Selinger 2001-2013
</metadata>
<g transform="translate(0.000000,2000.000000) scale(0.100000,-0.100000)"
fill="#000000" stroke="none">
<path d="M9540 19249 c-2293 -112 -4467 -1076 -6090 -2699 -1396 -1396 -2311
-3206 -2605 -5155 -441 -2921 524 -5864 2605 -7945 2081 -2081 5024 -3046
7945 -2605 2395 362 4555 1653 6013 3594 2103 2801 2443 6569 875 9704 -1577
3153 -4797 5133 -8318 5115 -148 0 -340 -4 -425 -9z m870 -19 c224 -11 485
-32 680 -56 2952 -355 5552 -2105 6994 -4707 114 -206 207 -397 200 -409 -4
-6 -3 -8 3 -5 12 8 86 -141 77 -155 -4 -7 -2 -8 4 -4 12 7 17 -10 14 -49 -2
-14 0 -16 6 -7 11 17 56 -83 46 -100 -4 -6 -3 -8 3 -5 10 6 67 -120 163 -362
41 -105 42 -116 7 -142 -5 -3 1 -9 13 -12 16 -4 20 -2 16 8 -3 8 -1 17 4 20 5
3 15 -14 21 -37 7 -24 17 -49 22 -56 7 -9 6 -11 -7 -6 -11 4 -16 1 -16 -11 0
-14 -6 -16 -32 -11 -18 3 -38 13 -44 21 -8 11 -11 7 -11 -18 0 -18 2 -26 5
-19 2 6 11 12 19 12 13 0 13 -2 2 -17 -13 -15 -12 -15 8 -5 30 16 37 15 19 -3
-8 -8 -19 -15 -24 -15 -5 0 -9 -7 -9 -15 0 -10 4 -12 12 -5 9 7 16 5 25 -5 11
-13 10 -18 -6 -30 -10 -8 -27 -12 -37 -9 -16 5 -18 2 -12 -16 6 -18 3 -21 -12
-18 -25 5 -31 48 -6 49 10 0 5 4 -12 10 -18 5 -33 5 -39 -1 -7 -7 -5 -10 6
-10 10 0 15 -8 14 -22 -1 -13 4 -32 11 -44 7 -11 10 -24 6 -28 -4 -4 -1 -11 6
-16 8 -4 15 -19 16 -32 1 -12 7 -24 13 -24 7 -1 20 -2 31 -3 22 -1 37 -41 15
-41 -7 0 -18 9 -24 20 -13 25 -30 17 -25 -11 3 -13 0 -19 -8 -16 -7 2 -12 13
-12 24 -1 11 -6 27 -13 36 -7 8 -10 22 -6 31 4 9 1 16 -6 16 -7 0 -10 7 -6 16
4 10 2 13 -6 8 -8 -5 -9 -2 -5 9 4 10 2 17 -4 17 -6 0 -9 7 -5 15 3 8 1 15 -4
15 -6 0 -9 3 -8 8 1 4 -3 17 -10 28 -6 12 -8 24 -4 28 3 4 1 10 -5 14 -6 4
-13 16 -15 27 -1 11 -6 22 -10 25 -4 3 -9 15 -11 25 -2 11 -9 30 -15 43 -7 12
-10 26 -7 31 3 5 1 11 -4 13 -5 1 -11 12 -13 23 -1 11 -5 22 -8 25 -3 3 -23
48 -44 100 -947 2334 -2836 4169 -5201 5050 -907 338 -1893 532 -2822 557
l-233 6 0 -1524 c0 -838 0 -1714 0 -1946 0 -335 -2 -423 -12 -424 -10 0 -10
-2 -1 -6 19 -7 19 -3353 0 -3354 -9 0 -9 -2 1 -6 9 -3 12 -59 12 -229 l0 -224
-90 0 -90 0 0 65 c0 64 0 65 28 66 l27 2 -27 4 -28 4 0 105 c0 76 3 104 13
105 10 0 10 2 0 6 -10 3 -13 45 -13 160 l0 154 50 -2 c27 -2 53 1 57 5 5 4 3
7 -2 6 -6 -1 -31 -2 -57 -1 l-48 1 0 3512 c0 1931 -2 3513 -4 3515 -11 11
-461 -1 -519 -13 -21 -4 -32 -1 -43 13 -12 15 -13 15 -8 1 5 -14 -1 -17 -28
-17 -18 -1 -55 -3 -81 -5 -36 -2 -50 1 -58 13 -9 14 -10 13 -5 -3 5 -15 2 -17
-14 -13 -11 3 -18 1 -14 -4 3 -5 1 -9 -5 -9 -28 0 -1 89 28 90 11 0 11 3 1 15
-18 22 -27 18 -33 -15 -4 -18 -13 -30 -22 -30 -8 0 -15 -5 -15 -11 0 -5 4 -8
9 -5 5 3 9 -6 9 -19 0 -20 -6 -25 -24 -25 -15 0 -24 6 -24 15 0 8 -5 15 -11
15 -6 0 -8 -7 -5 -15 9 -24 -24 -32 -41 -10 -11 17 -11 20 4 29 10 5 29 10 43
10 17 1 26 7 28 21 2 17 1 18 -10 5 -7 -8 -19 -16 -26 -17 -17 -4 -15 16 3 23
14 6 13 8 -2 20 -10 7 -27 13 -38 13 -17 -1 -17 -2 -2 -6 9 -2 17 -11 17 -19
0 -18 -15 -18 -34 1 -20 21 -23 19 -30 -16 -4 -21 -10 -29 -20 -26 -8 3 -16
-2 -19 -14 -4 -15 -2 -18 7 -10 10 8 12 5 11 -12 -2 -26 -45 -39 -45 -13 0 9
-5 16 -11 16 -6 0 -9 -7 -6 -15 4 -8 2 -17 -4 -20 -5 -4 -9 -3 -8 2 4 24 -4
34 -11 13 l-8 -25 -1 27 c-1 26 14 47 21 29 5 -13 48 6 48 23 0 7 7 17 16 20
8 3 12 10 9 16 -3 5 0 10 7 11 7 0 2 5 -12 10 -23 9 -23 11 -7 20 9 6 17 17
17 25 0 8 -4 12 -10 9 -5 -3 -10 1 -10 9 0 9 15 23 33 32 27 15 30 15 19 2
-17 -21 -25 -61 -10 -52 7 5 9 1 5 -9 -5 -14 -3 -15 13 -4 22 13 27 28 8 25
-15 -4 -18 24 -3 34 5 4 10 13 10 19 0 7 6 14 14 17 9 3 11 0 6 -8 -6 -10 -3
-12 10 -6 15 5 16 4 6 -8 -6 -8 -13 -22 -15 -33 -3 -14 2 -19 22 -20 15 0 19
1 10 4 -22 5 -23 26 -3 43 8 7 12 16 9 21 -3 5 2 9 11 9 11 0 16 -7 14 -22 -4
-37 10 -68 28 -61 14 6 14 7 0 18 -19 14 -18 55 1 55 7 0 11 4 8 9 -3 5 18 7
47 6 28 -1 58 2 66 9 11 8 15 8 18 -1 3 -9 10 -10 24 -3 10 6 30 8 44 6 14 -3
25 0 25 5 0 5 7 9 16 9 8 0 13 -4 9 -9 -3 -6 4 -9 15 -8 11 1 20 5 20 10 0 5
9 7 21 4 12 -3 32 -1 46 4 18 7 22 6 17 -4 -6 -9 -4 -9 7 -1 8 6 54 10 107 10
52 -1 99 2 105 6 17 11 477 9 707 -2z m-1500 -85 c0 -7 -6 -16 -12 -19 -9 -3
-7 -9 6 -20 11 -9 15 -16 9 -16 -5 0 -10 -14 -11 -30 -1 -47 -11 -70 -28 -63
-10 4 -12 9 -4 18 5 6 7 15 3 18 -3 4 0 7 8 8 8 0 6 3 -5 8 -19 7 -19 8 1 28
20 20 20 20 1 32 -21 13 -19 38 2 33 7 -2 10 3 7 12 -4 10 -1 13 9 9 7 -3 14
-11 14 -18z m-70 -15 c-20 -13 -43 -13 -35 0 4 6 10 8 15 5 5 -3 12 0 15 6 4
5 10 8 13 4 4 -3 0 -10 -8 -15z m-77 -15 c-3 -9 -8 -14 -10 -11 -3 3 -2 9 2
15 9 16 15 13 8 -4z m-55 -4 c-2 -5 6 -17 17 -25 13 -11 15 -15 5 -14 -18 4
-40 30 -34 40 7 11 15 10 12 -1z m134 -13 c-9 -9 -15 -9 -24 0 -9 9 -7 12 12
12 19 0 21 -3 12 -12z m-57 -8 c-3 -5 0 -10 7 -10 8 0 6 -5 -5 -11 -9 -6 -15
-14 -12 -20 4 -5 -1 -9 -9 -9 -20 0 -21 16 -1 24 8 3 12 12 9 21 -3 8 -1 15 6
15 6 0 8 -4 5 -10z m-120 -18 c-3 -3 -11 0 -18 7 -9 10 -8 11 6 5 10 -3 15 -9
12 -12z m181 7 c-15 -9 -16 -13 -5 -20 10 -6 8 -9 -8 -9 -13 0 -23 4 -23 10 0
10 29 29 45 29 6 0 2 -4 -9 -10z m-129 -46 c-3 -3 -11 -2 -17 2 -9 6 -9 10 1
16 14 8 27 -7 16 -18z m-57 -3 c0 -5 -4 -10 -10 -10 -5 0 -10 5 -10 10 0 6 5
10 10 10 6 0 10 -4 10 -10z m175 -19 c-3 -12 -11 -19 -16 -16 -5 4 -9 1 -9 -6
0 -7 -3 -9 -7 -5 -5 4 1 14 11 22 11 8 16 14 12 14 -4 0 -4 5 -1 11 11 16 18
3 10 -20z m-228 13 c-3 -3 -12 -4 -19 -1 -8 3 -5 6 6 6 11 1 17 -2 13 -5z
m391 -9 c-2 -5 -6 -9 -10 -7 -11 3 -10 -16 2 -39 9 -15 7 -19 -5 -19 -10 0
-13 5 -9 13 6 9 5 9 -8 0 -8 -7 -17 -10 -21 -7 -10 10 27 74 41 71 7 -1 12 -6
10 -12z m-221 -15 c-1 -20 -8 -25 -20 -14 -3 3 0 12 6 20 16 17 16 17 14 -6z
m-340 -6 c-3 -3 -12 -4 -19 -1 -8 3 -5 6 6 6 11 1 17 -2 13 -5z m278 -14 c3
-6 -1 -7 -9 -4 -18 7 -21 14 -7 14 6 0 13 -4 16 -10z m-58 -6 c-3 -3 -12 -4
-19 -1 -8 3 -5 6 6 6 11 1 17 -2 13 -5z m2063 -19 c1703 -143 3301 -749 4662
-1767 1589 -1190 2732 -2861 3273 -4785 187 -666 302 -1410 322 -2080 l6 -213
-517 0 -518 0 7 28 c4 15 9 36 11 47 1 11 3 20 4 20 1 0 4 14 5 30 2 17 24
116 50 220 26 105 48 206 51 225 2 19 9 50 14 70 8 31 31 137 46 210 3 14 45
185 93 380 166 668 172 697 177 780 2 48 20 146 44 240 22 88 40 164 40 170 0
7 -232 10 -739 10 -696 0 -740 -1 -745 -17 -2 -10 -7 -34 -11 -53 -20 -107
-20 -107 -81 -115 -122 -15 -177 -50 -215 -139 -12 -28 -41 -136 -64 -241 -80
-356 -222 -967 -322 -1390 -25 -104 -60 -253 -77 -330 l-32 -140 -190 -3 -190
-2 23 -98 c13 -53 89 -378 169 -722 150 -649 152 -655 158 -649 5 5 265 1217
277 1289 4 30 15 87 24 125 9 39 67 311 131 605 120 560 293 1332 300 1339 8
8 99 7 111 -1 6 -5 14 -5 17 0 3 5 26 6 51 2 25 -4 45 -4 45 0 0 4 12 6 28 4
76 -10 101 -11 96 -2 -4 6 8 7 28 4 19 -3 61 -5 94 -6 32 0 77 0 99 -1 47 -2
71 -2 105 0 14 1 51 2 83 1 32 0 63 2 69 6 7 4 8 3 4 -5 -6 -8 -1 -10 16 -6
42 11 128 10 129 0 0 -5 3 -4 6 3 2 6 10 9 15 5 15 -8 69 -12 64 -4 -2 3 16 7
40 7 27 1 41 -2 37 -9 -4 -6 -1 -7 8 -2 15 10 139 14 139 5 0 -3 35 -5 79 -4
l78 2 -23 -96 c-88 -372 -419 -1705 -444 -1787 -23 -78 -106 -397 -305 -1179
-118 -466 -218 -852 -221 -857 -3 -5 -20 -9 -38 -7 -17 1 -37 -2 -44 -6 -7 -4
-12 -3 -12 3 0 8 -94 8 -120 1 -8 -2 -131 1 -165 4 -16 2 -35 -1 -42 -6 -7 -6
-19 -6 -30 0 -11 7 -24 7 -35 1 -12 -7 -18 -6 -18 2 0 9 -3 9 -14 0 -9 -7 -17
-8 -20 -2 -6 9 -80 6 -97 -4 -5 -4 -9 -1 -9 5 0 6 -4 9 -8 6 -19 -11 -73 -16
-67 -6 3 5 1 10 -4 10 -6 0 -11 -4 -11 -9 0 -6 -12 -6 -30 -1 -21 6 -30 5 -30
-3 0 -8 -3 -7 -9 2 -6 10 -13 11 -29 2 -25 -13 -35 -14 -28 -2 6 9 -81 7 -90
-2 -3 -3 -11 -4 -17 -1 -18 6 -136 11 -132 5 2 -4 -29 -5 -68 -3 -92 4 -108 4
-190 0 -38 -2 -71 0 -74 5 -2 4 -8 5 -12 2 -14 -8 -105 -9 -124 0 -9 4 -23 3
-30 -2 -14 -10 -82 -9 -111 3 -15 6 -17 4 -11 -7 7 -11 6 -12 -6 -3 -8 7 -23
8 -34 4 -11 -4 -29 -4 -40 0 -19 6 -55 6 -166 -1 -25 -1 -50 1 -56 4 -6 4 -13
2 -15 -4 -3 -8 -14 -8 -40 -1 -20 6 -41 6 -49 1 -8 -5 -21 -9 -29 -9 -13 0
-13 1 0 10 8 5 10 10 5 10 -6 0 -16 -5 -23 -12 -9 -9 -12 -9 -12 1 0 10 -3 11
-14 2 -8 -7 -17 -8 -20 -3 -3 5 -18 7 -34 4 -26 -3 -29 -1 -39 40 -26 109
-466 1782 -488 1855 -13 46 -26 93 -27 105 -2 13 -6 28 -9 33 -4 6 -17 53 -30
105 -13 52 -25 88 -26 80 -2 -8 -26 -100 -53 -205 -50 -193 -470 -1839 -498
-1952 l-15 -61 -44 -4 c-25 -2 -46 -1 -49 1 -8 9 -43 8 -38 -1 3 -4 -2 -8 -10
-8 -9 0 -16 4 -16 9 0 4 -12 6 -27 4 -40 -6 -45 -6 -75 0 -16 3 -28 2 -28 -3
0 -5 -10 -6 -22 -4 -27 7 -29 7 -93 5 -72 -2 -188 -3 -202 -2 -18 1 -39 1
-108 -2 -33 -1 -63 3 -67 8 -5 6 -8 5 -8 -2 0 -7 -6 -10 -12 -8 -31 11 -68 13
-74 4 -3 -6 -12 -5 -22 3 -9 8 -17 9 -19 3 -2 -6 -30 -8 -73 -5 -40 3 -75 1
-80 -4 -7 -7 -10 -6 -10 0 0 6 -20 8 -52 4 -29 -3 -71 -2 -93 1 -22 4 -59 4
-82 -1 -26 -4 -43 -4 -43 2 0 5 -5 6 -11 2 -16 -9 -239 -11 -239 -2 0 4 -11 3
-25 -2 -16 -6 -26 -6 -31 1 -4 8 -9 7 -15 -2 -5 -8 -9 -9 -9 -4 0 6 -9 11 -20
11 -11 0 -20 -3 -20 -6 0 -3 -24 -3 -52 0 -29 3 -70 3 -91 -1 -21 -3 -40 -2
-43 3 -3 4 -10 5 -16 2 -13 -8 -148 -11 -148 -4 0 8 -116 3 -129 -5 -6 -3 -11
-1 -11 5 0 7 -6 8 -18 1 -13 -7 -23 -6 -30 1 -7 7 -12 8 -13 2 -1 -13 -33 109
-258 996 -111 437 -211 820 -221 850 -10 30 -25 87 -34 125 -8 39 -92 372
-186 740 -170 666 -301 1206 -294 1214 4 4 351 5 369 1 6 -1 15 -1 20 0 33 7
115 3 116 -5 0 -5 3 -4 6 3 3 9 9 10 17 3 9 -8 51 -8 51 -1 0 1 8 3 18 5 10 2
14 -1 10 -8 -4 -7 0 -8 13 -2 10 4 28 8 39 7 11 0 36 -1 55 -1 19 0 44 -1 55
0 11 0 47 0 80 0 33 0 65 0 70 1 6 0 24 0 40 -1 17 0 59 -1 94 -1 34 0 67 -2
71 -5 5 -3 11 -2 13 2 3 5 79 7 169 7 l163 -1 12 -34 c7 -19 12 -29 12 -22 1
10 -98 501 -114 571 l-5 22 -760 0 c-601 0 -760 -3 -760 -12 0 -7 9 -47 20
-88 11 -41 20 -78 20 -82 0 -5 -19 -8 -42 -8 -76 0 -172 -20 -206 -43 -43 -29
-67 -92 -59 -156 5 -39 107 -443 271 -1071 95 -366 131 -511 170 -700 24 -118
47 -227 51 -242 l7 -28 -316 0 -316 0 0 4437 0 4436 213 -6 c116 -4 295 -13
397 -22z m-1976 0 c-4 -8 -10 -15 -15 -15 -4 0 -6 7 -3 15 4 8 10 15 15 15 4
0 6 -7 3 -15z m67 -2 c8 -10 9 -14 2 -10 -7 4 -16 0 -22 -10 -10 -17 -10 -16
-11 3 0 17 7 34 15 34 2 0 9 -8 16 -17z m-127 -8 c-4 -8 -8 -15 -10 -15 -2 0
-4 7 -4 15 0 8 4 15 10 15 5 0 7 -7 4 -15z m-170 -30 c-4 -8 -8 -15 -10 -15
-2 0 -4 7 -4 15 0 8 4 15 10 15 5 0 7 -7 4 -15z m10186 -5811 c0 -8 -4 -13 -9
-11 -5 1 -9 -2 -9 -7 0 -13 -30 -28 -42 -21 -17 10 -11 25 7 18 12 -5 15 -2
11 9 -4 10 -1 15 10 14 9 0 16 5 14 12 -1 8 2 11 8 7 5 -3 10 -13 10 -21z m0
-79 c0 -17 -35 -21 -45 -5 -3 6 1 7 9 4 9 -3 16 -1 16 5 0 6 5 11 10 11 6 0
10 -7 10 -15z m40 -38 c0 -5 -4 -5 -10 -2 -5 3 -10 14 -10 23 0 15 2 15 10 2
5 -8 10 -19 10 -23z m-97 16 c-7 -2 -13 -9 -13 -14 0 -6 4 -8 9 -4 5 3 12 1
16 -4 3 -6 -11 -13 -30 -17 -25 -4 -35 -11 -31 -20 9 -23 -18 -15 -36 10 -16
22 -16 23 8 18 18 -3 24 0 24 13 0 11 5 15 15 11 8 -3 15 -1 15 4 0 6 8 10 18
9 10 0 12 -3 5 -6z m61 -46 c-15 -9 -34 -2 -34 13 0 5 7 7 15 4 9 -4 15 0 15
7 0 11 2 11 10 -1 6 -10 5 -17 -6 -23z m-34 -22 c10 -12 10 -15 -4 -15 -9 0
-16 -5 -16 -11 0 -6 -9 -8 -22 -4 -17 6 -20 4 -15 -9 5 -11 1 -16 -12 -16 -10
0 -21 9 -24 20 -4 16 0 20 20 20 13 0 22 4 18 9 -4 8 7 14 36 20 4 0 12 -6 19
-14z m60 -20 c0 -18 -26 -20 -36 -3 -4 6 -3 8 4 4 6 -3 13 -2 17 4 9 14 15 12
15 -5z m40 -15 c0 -5 -2 -10 -4 -10 -3 0 -8 5 -11 10 -3 6 -1 10 4 10 6 0 11
-4 11 -10z m-90 -4 c0 -3 -4 -8 -10 -11 -5 -3 -10 -1 -10 4 0 6 5 11 10 11 6
0 10 -2 10 -4z m-25 -17 c4 -6 13 -8 21 -5 7 3 16 1 19 -4 9 -14 42 -12 48 3
4 7 6 6 6 -5 1 -21 -18 -28 -42 -16 -11 5 -29 7 -42 4 -17 -4 -24 -1 -28 14
-5 21 7 27 18 9z m130 -29 c3 -5 1 -10 -4 -10 -6 0 -11 5 -11 10 0 6 2 10 4
10 3 0 8 -4 11 -10z m-92 -17 c-7 -3 -13 -11 -13 -18 0 -7 -9 -15 -21 -18 -12
-3 -18 -10 -14 -16 3 -6 -1 -11 -11 -11 -10 0 -14 3 -11 7 4 3 2 12 -4 20 -9
10 -6 13 14 13 17 0 25 4 22 13 -3 7 5 12 22 13 16 1 22 -1 16 -3z m74 -28 c0
-18 -16 -19 -37 -4 -13 9 -12 10 3 5 9 -3 17 -1 17 4 0 6 4 10 8 10 5 0 9 -7
9 -15z m-172 -38 c1 -7 7 -11 14 -9 8 1 10 -2 4 -10 -4 -7 -6 -21 -5 -30 2
-10 -2 -18 -8 -18 -7 0 -10 7 -6 15 3 8 1 15 -4 15 -5 0 -7 7 -4 15 4 8 2 15
-3 15 -5 0 -9 9 -9 20 0 14 4 16 11 9 5 -5 10 -15 10 -22z m120 -7 c19 -3 16
-8 -9 -12 -18 -4 -26 0 -29 13 -4 15 -2 17 11 10 10 -5 22 -10 27 -11z m64
-20 c-6 -5 -19 -6 -27 -2 -13 4 -12 7 4 12 23 9 41 1 23 -10z m-119 -4 c0 -8
6 -17 13 -19 7 -3 5 -6 -5 -6 -10 -1 -22 8 -28 19 -9 16 -8 20 5 20 8 0 15 -6
15 -14z m53 -37 c-14 -13 -61 -21 -67 -11 -3 5 2 9 12 9 36 0 41 3 35 21 -6
15 -5 15 11 3 9 -8 13 -18 9 -22z m91 -4 c4 -10 -1 -15 -15 -15 -17 0 -18 2
-7 15 16 18 15 18 22 0z m-182 -7 c-8 -8 -9 -15 -1 -25 8 -9 8 -13 1 -13 -18
0 -24 20 -12 35 7 8 15 15 18 15 3 0 1 -5 -6 -12z m65 -24 c-3 -3 -12 -4 -19
-1 -8 3 -5 6 6 6 11 1 17 -2 13 -5z m73 -15 c0 -4 -11 -9 -24 -11 -15 -3 -23
-1 -20 6 5 12 44 16 44 5z m-76 -23 c-3 -8 2 -16 13 -19 16 -4 16 -5 1 -6 -18
-1 -42 32 -31 42 10 11 22 -3 17 -17z m127 5 c-8 -5 -20 -7 -28 -4 -21 8 -15
13 15 13 20 0 23 -3 13 -9z m-48 -18 c-7 -3 -13 -11 -13 -19 0 -8 -8 -14 -17
-13 -12 0 -13 2 -5 6 8 3 10 9 3 16 -7 9 -2 12 17 13 15 1 21 -1 15 -3z m-112
-20 c13 -15 12 -15 -8 -4 -24 12 -29 21 -14 21 5 0 15 -7 22 -17z m59 -7 c0
-3 -4 -8 -10 -11 -5 -3 -10 -1 -10 4 0 6 5 11 10 11 6 0 10 -2 10 -4z m127
-12 c-3 -3 -12 -4 -19 -1 -8 3 -5 6 6 6 11 1 17 -2 13 -5z m-187 -19 c7 -9 8
-15 2 -15 -5 0 -12 7 -16 15 -3 8 -4 15 -2 15 2 0 9 -7 16 -15z m67 -1 c-3 -3
-12 -4 -19 -1 -8 3 -5 6 6 6 11 1 17 -2 13 -5z m47 -25 c-9 -15 -20 -10 -20
10 0 15 3 17 13 9 7 -6 10 -14 7 -19z m-27 -35 c-3 -3 -12 -4 -19 -1 -8 3 -5
6 6 6 11 1 17 -2 13 -5z m-15520 -499 c6 0 14 3 18 6 3 4 22 5 41 3 18 -2 50
-6 69 -8 19 -2 35 0 35 4 0 4 16 4 35 0 19 -4 37 -5 40 -1 5 9 36 8 52 -2 6
-4 13 -1 16 5 3 10 7 10 19 1 8 -7 17 -11 19 -8 11 10 79 11 84 1 3 -8 7 -8
11 1 3 7 11 10 18 7 21 -8 97 -10 102 -3 2 4 20 3 39 -1 19 -4 37 -4 40 0 5 9
24 8 40 -1 6 -3 38 -3 72 0 34 4 59 3 57 -1 -3 -4 6 -4 19 1 14 6 27 8 29 6 5
-5 67 -6 146 -2 28 1 52 -1 52 -4 0 -4 18 -3 40 1 22 4 43 3 46 -1 3 -5 10 -6
16 -3 20 13 108 9 113 -4 3 -8 5 -355 5 -773 l0 -759 995 0 995 0 0 768 0 769
38 1 c93 5 143 4 169 -2 21 -5 24 -4 13 4 -13 8 -13 10 0 10 9 0 21 -5 28 -12
9 -9 15 -9 24 0 6 6 18 8 27 3 9 -4 30 -7 46 -5 82 6 146 7 151 1 4 -4 11 -4
17 0 16 10 88 13 83 4 -5 -8 15 -7 97 4 22 2 35 1 32 -5 -5 -8 38 -5 54 4 3 2
33 0 66 -4 33 -4 64 -5 69 -2 14 8 147 8 152 0 3 -4 15 -3 28 2 13 5 27 6 30
2 11 -11 36 -11 30 0 -5 7 -2 8 5 3 15 -9 109 -11 117 -2 4 3 15 2 25 -4 11
-5 19 -6 19 -1 0 5 24 5 53 2 28 -4 54 -7 57 -8 3 0 11 4 18 10 9 8 12 -385
12 -1960 0 -1961 0 -1970 -20 -1975 -11 -3 -20 -1 -20 5 0 5 -6 6 -12 1 -17
-10 -47 -10 -76 -1 -13 5 -21 5 -19 0 4 -6 -226 -8 -245 -2 -19 6 -68 4 -68
-2 0 -4 -14 -2 -31 4 -18 6 -34 7 -38 2 -8 -11 -201 -12 -201 -1 0 5 -8 6 -17
3 -26 -8 -187 -11 -200 -3 -10 7 -52 2 -61 -7 -2 -3 -13 -1 -23 5 -14 7 -19 6
-19 -2 0 -8 -4 -9 -13 0 -8 6 -16 9 -19 6 -8 -8 -68 -13 -68 -6 0 4 -12 6 -27
5 -16 -1 -28 -3 -28 -4 0 -1 -10 -4 -22 -5 -13 -1 -23 2 -23 6 0 5 -11 4 -24
-1 -13 -5 -27 -6 -30 -2 -10 9 -36 11 -36 2 0 -8 -83 -4 -107 5 -10 3 -13 141
-13 645 l0 640 -995 0 -995 0 0 -652 c0 -376 -4 -647 -9 -639 -5 7 -14 10 -20
6 -16 -9 -61 -14 -61 -6 0 4 -18 7 -40 6 -22 0 -40 -3 -40 -7 0 -8 -21 -5 -37
5 -7 5 -13 5 -13 0 0 -12 -134 -11 -142 1 -5 8 -11 7 -19 -1 -10 -10 -92 -9
-127 3 -7 2 -11 0 -8 -4 3 -6 -289 -8 -319 -2 -18 4 -69 2 -112 -3 -24 -3 -45
-2 -48 4 -4 5 -12 6 -18 2 -18 -11 -47 -11 -47 1 0 7 -4 6 -11 -1 -6 -6 -23
-8 -45 -3 -18 4 -32 5 -30 1 2 -3 -31 -6 -75 -6 -43 0 -79 3 -79 7 0 4 -11 4
-23 -1 -13 -5 -29 -6 -36 -2 -7 5 -33 7 -57 5 l-44 -3 0 1963 0 1964 76 0 c41
0 78 3 81 6 4 4 9 3 12 -2 3 -4 11 -8 18 -7z m6873 -735 c0 -19 -7 -20 -90
-20 -49 0 -90 2 -90 4 0 30 15 36 96 36 77 0 84 -2 84 -20z m0 -58 c0 -15 -9
-18 -57 -19 -32 -1 -64 2 -73 7 -13 8 -13 10 0 11 8 1 -1 5 -20 9 -25 5 -10 8
58 9 82 1 92 -1 92 -17z m0 -49 c0 -16 -9 -17 -82 -13 l-83 5 80 5 80 6 -70 5
-70 5 73 2 c63 2 72 0 72 -15z m-16 -29 c12 -5 16 -21 16 -65 l0 -59 -72 -2
-73 -2 73 -3 72 -4 0 -37 0 -37 -60 3 c-33 2 -58 8 -54 13 3 5 -11 9 -30 9
-47 0 -46 16 2 26 l37 8 -34 5 c-19 3 -36 12 -39 19 -3 9 19 12 85 13 l88 2
-55 9 c-30 5 -70 11 -87 14 -31 5 -49 34 -20 34 9 0 8 3 -2 9 -19 12 15 22 85
24 40 1 53 5 50 14 -6 15 -4 15 18 7z m14 -242 c3 -21 1 -22 -55 -18 l-58 5
54 -10 c30 -5 57 -12 60 -14 2 -3 -37 -5 -87 -5 -68 0 -91 3 -89 13 1 6 7 15
12 19 6 5 5 8 -2 8 -19 0 -16 18 5 23 9 3 49 4 87 4 65 -2 70 -4 73 -25z m-8
-92 c13 -9 13 -10 0 -10 -8 0 -22 5 -30 10 -13 9 -13 10 0 10 8 0 22 -5 30
-10z m-50 -60 c-23 -6 -21 -8 15 -12 28 -3 21 -5 -25 -5 -36 0 -55 2 -42 4 12
2 22 9 22 14 0 5 12 9 28 8 l27 -1 -25 -8z m-100 -10 c0 -5 -4 -10 -10 -10 -5
0 -10 5 -10 10 0 6 5 10 10 10 6 0 10 -4 10 -10z m118 -47 c-16 -2 -40 -2 -55
0 -16 2 -3 4 27 4 30 0 43 -2 28 -4z m26 -19 c9 -3 16 -10 16 -15 0 -13 -48
-11 -56 2 -4 8 -28 10 -68 6 -36 -3 -53 -1 -41 3 24 10 127 13 149 4z m-56
-51 c-10 -2 -28 -2 -40 0 -13 2 -5 4 17 4 22 1 32 -1 23 -4z m72 3 c0 -2 -7
-7 -16 -10 -8 -3 -12 -2 -9 4 6 10 25 14 25 6z m-7 -43 c-7 -2 -21 -2 -30 0
-10 3 -4 5 12 5 17 0 24 -2 18 -5z m7 -49 c0 -24 -3 -26 -31 -20 -17 3 -38 6
-46 6 -8 0 -11 5 -8 11 4 6 13 8 21 5 7 -3 16 -1 19 4 3 5 -23 11 -57 13 -58
3 -57 3 20 5 l82 2 0 -26z m-20 -44 c17 -5 2 -8 -48 -8 -40 -1 -82 -4 -93 -7
-10 -4 -19 -2 -19 4 0 16 117 25 160 11z m20 -37 c0 -5 -38 -8 -84 -8 -46 0
-79 3 -73 7 16 10 157 10 157 1z m0 -71 c0 -24 -10 -34 -24 -23 -6 5 -24 11
-41 14 l-30 4 32 2 c17 0 35 6 38 11 10 16 25 11 25 -8z m-22 -68 c35 -10 27
-31 -10 -28 -31 3 -31 3 -8 -6 22 -9 21 -9 -9 -5 -18 3 -43 5 -55 6 -19 1 -19
2 4 10 17 5 7 6 -30 3 -69 -8 -60 5 12 16 74 11 71 10 96 4z m18 -96 c2 -14
-2 -15 -27 -6 -30 10 -101 7 -131 -6 -10 -5 -18 -4 -18 1 0 15 51 28 113 28
48 0 61 -3 63 -17z m-19 -46 c6 -4 15 -20 18 -35 4 -15 13 -27 20 -27 18 0 34
-22 41 -58 8 -41 -12 -43 -21 -3 -3 16 -17 39 -30 51 -14 13 -22 27 -19 31 3
5 -1 6 -9 3 -8 -3 -21 1 -28 9 -10 10 -22 12 -44 6 -16 -5 -33 -9 -37 -9 -11
0 -5 23 7 32 13 10 87 10 102 0z m-67 -59 c-14 -3 -29 -9 -34 -14 -16 -15 -29
-10 -16 6 7 8 27 14 44 14 27 -2 28 -2 6 -6z m84 -26 c4 4 4 0 1 -9 -3 -8 0
-22 8 -29 19 -19 15 -52 -8 -83 -24 -32 -42 -35 -21 -4 18 26 12 88 -13 128
-15 25 -15 25 5 7 11 -9 24 -14 28 -10z m98 -19 c17 -50 10 -86 -22 -120 -21
-21 -22 -21 -15 -3 14 38 17 104 7 134 -9 25 -8 31 3 31 7 0 20 -19 27 -42z
m47 -17 c-1 -24 -2 -24 -8 5 -4 17 -11 37 -15 45 -4 8 0 5 8 -5 9 -11 16 -31
15 -45z m98 37 c-3 -8 -6 -5 -6 6 -1 11 2 17 5 13 3 -3 4 -12 1 -19z m42 -15
c-1 -34 -2 -35 -9 -13 -11 36 -11 50 0 50 6 0 10 -17 9 -37z m30 -47 c1 -67
-5 -55 -12 24 -4 40 -2 57 3 45 5 -11 9 -42 9 -69z m42 57 c2 -63 -3 -138 -9
-145 -4 -4 -7 33 -7 83 -1 49 3 89 7 89 4 0 8 -12 9 -27z m26 -25 c-2 -13 -4
-5 -4 17 -1 22 1 32 4 23 2 -10 2 -28 0 -40z m42 -15 c-2 -70 -6 -63 -11 20
-2 26 0 47 4 47 5 0 7 -30 7 -67z m24 47 c3 -11 1 -18 -4 -14 -5 3 -9 12 -9
20 0 20 7 17 13 -6z m112 -57 c-3 -100 -3 -103 -16 -103 -7 0 -8 21 -4 65 5
45 4 65 -4 65 -7 0 -12 -25 -13 -67 l-1 -68 -7 60 c-6 52 -7 54 -9 20 -1 -22
-6 -49 -11 -60 -7 -16 -9 -12 -10 20 -2 39 -3 39 -10 10 -6 -23 -8 -15 -9 37
0 36 -4 73 -7 82 -5 13 3 16 48 16 l54 0 -1 -77z m-604 15 c22 -24 23 -32 9
-59 -16 -29 -29 -23 -23 11 4 31 -11 38 -30 15 -5 -6 -7 0 -4 13 3 12 1 22 -4
22 -5 0 -14 -10 -19 -22 -8 -19 -10 -20 -7 -3 1 11 13 25 27 32 32 16 29 17
51 -9z m-81 8 c0 -2 -7 -9 -15 -16 -13 -11 -14 -10 -9 4 5 14 24 23 24 12z
m510 -76 l-8 -35 -1 45 c-1 27 3 40 8 35 6 -6 6 -25 1 -45z m-218 5 c3 -13 1
-22 -3 -19 -9 5 -13 44 -5 44 2 0 6 -11 8 -25z m125 -7 c-3 -8 -6 -5 -6 6 -1
11 2 17 5 13 3 -3 4 -12 1 -19z m-370 -14 c-3 -3 -12 -4 -19 -1 -8 3 -5 6 6 6
11 1 17 -2 13 -5z"/>
<path d="M9429 19183 c-13 -16 -12 -17 4 -4 16 13 21 21 13 21 -2 0 -10 -8
-17 -17z"/>
<path d="M9366 19173 c-6 -14 -5 -15 5 -6 7 7 10 15 7 18 -3 3 -9 -2 -12 -12z"/>
<path d="M9135 19160 c-11 -12 -13 -20 -6 -20 7 0 10 -4 7 -8 -2 -4 4 -9 15
-9 10 -1 19 2 19 8 0 5 -3 8 -7 8 -20 -3 -23 3 -13 21 6 11 9 20 7 20 -2 0
-12 -9 -22 -20z"/>
<path d="M9305 19170 c-3 -5 -1 -10 4 -10 6 0 11 5 11 10 0 6 -2 10 -4 10 -3
0 -8 -4 -11 -10z"/>
<path d="M9245 19160 c-3 -5 -1 -10 4 -10 6 0 11 5 11 10 0 6 -2 10 -4 10 -3
0 -8 -4 -11 -10z"/>
<path d="M9215 19130 c3 -5 8 -10 11 -10 2 0 4 5 4 10 0 6 -5 10 -11 10 -5 0
-7 -4 -4 -10z"/>
<path d="M9540 19095 c0 -8 7 -15 16 -15 14 0 14 3 4 15 -7 8 -14 15 -16 15
-2 0 -4 -7 -4 -15z"/>
<path d="M9596 19101 c-3 -5 1 -11 9 -14 9 -4 12 -1 8 9 -6 16 -10 17 -17 5z"/>
<path d="M9655 19100 c-3 -5 -1 -10 4 -10 6 0 11 5 11 10 0 6 -2 10 -4 10 -3
0 -8 -4 -11 -10z"/>
<path d="M9710 19100 c0 -5 5 -10 10 -10 6 0 10 5 10 10 0 6 -4 10 -10 10 -5
0 -10 -4 -10 -10z"/>
<path d="M9015 19090 c-3 -6 1 -7 9 -4 18 7 21 14 7 14 -6 0 -13 -4 -16 -10z"/>
<path d="M9075 19073 c0 -18 6 -29 18 -31 22 -4 21 7 -1 36 l-18 23 1 -28z"/>
<path d="M9422 19088 c2 -6 10 -14 16 -16 7 -2 10 2 6 12 -7 18 -28 22 -22 4z"/>
<path d="M9480 19091 c0 -6 5 -13 10 -16 6 -3 10 1 10 9 0 9 -4 16 -10 16 -5
0 -10 -4 -10 -9z"/>
<path d="M9245 19060 c-5 -21 -11 -30 -21 -26 -8 3 -14 1 -14 -3 0 -13 29 -21
35 -10 4 5 12 6 18 3 8 -5 8 -3 0 7 -17 18 -16 27 4 31 15 3 15 4 0 16 -13 11
-16 9 -22 -18z"/>
<path d="M9305 19080 c-3 -5 -4 -10 -1 -10 2 0 12 -3 20 -6 12 -5 15 -2 10 10
-7 18 -20 21 -29 6z"/>
<path d="M9365 19080 c3 -5 14 -10 23 -10 15 0 15 2 2 10 -20 13 -33 13 -25 0z"/>
<path d="M9192 19069 c2 -7 10 -15 17 -17 8 -3 12 1 9 9 -2 7 -10 15 -17 17
-8 3 -12 -1 -9 -9z"/>
<path d="M9462 19050 c-8 -13 -8 -20 -2 -20 6 0 13 7 17 15 9 24 -1 27 -15 5z"/>
<path d="M9290 19041 c-7 -15 -7 -21 0 -21 12 0 25 28 17 36 -3 3 -10 -4 -17
-15z"/>
<path d="M9346 19045 c-3 -8 -1 -15 4 -15 13 0 22 18 11 24 -5 3 -11 -1 -15
-9z"/>
<path d="M9410 19052 c0 -6 -8 -13 -17 -15 -16 -4 -16 -5 -1 -6 18 -1 34 16
24 26 -3 4 -6 1 -6 -5z"/>
<path d="M9176 19035 c-3 -9 -10 -13 -16 -10 -5 3 -10 1 -10 -4 0 -13 20 -14
40 -1 11 7 12 12 4 20 -8 8 -13 7 -18 -5z"/>
<path d="M18388 13763 c6 -2 18 -2 25 0 6 3 1 5 -13 5 -14 0 -19 -2 -12 -5z"/>
<path d="M18448 13653 c7 -3 16 -2 19 1 4 3 -2 6 -13 5 -11 0 -14 -3 -6 -6z"/>
<path d="M18458 13603 c6 -2 18 -2 25 0 6 3 1 5 -13 5 -14 0 -19 -2 -12 -5z"/>
<path d="M18497 13565 c-4 -8 -3 -16 1 -19 4 -3 9 4 9 15 2 23 -3 25 -10 4z"/>
<path d="M18517 13513 c-10 -9 -9 -23 1 -23 5 0 9 7 9 15 0 17 -1 18 -10 8z"/>
<path d="M18537 13457 c-3 -9 1 -18 9 -21 16 -6 18 2 5 22 -7 11 -9 11 -14 -1z"/>
<path d="M18525 13420 c-3 -5 -1 -10 4 -10 6 0 11 5 11 10 0 6 -2 10 -4 10 -3
0 -8 -4 -11 -10z"/>
<path d="M18557 13400 c-3 -12 0 -20 8 -20 8 0 11 8 8 20 -3 11 -7 20 -8 20
-1 0 -5 -9 -8 -20z"/>
<path d="M18505 13390 c3 -5 8 -10 11 -10 2 0 4 5 4 10 0 6 -5 10 -11 10 -5 0
-7 -4 -4 -10z"/>
<path d="M18540 13359 c0 -5 5 -7 10 -4 6 3 10 8 10 11 0 2 -4 4 -10 4 -5 0
-10 -5 -10 -11z"/>
<path d="M18573 13346 c-9 -11 -8 -15 7 -19 14 -3 18 0 17 14 -1 22 -8 23 -24
5z"/>
<path d="M18530 13335 c0 -5 5 -17 10 -25 5 -8 10 -10 10 -5 0 6 -5 17 -10 25
-5 8 -10 11 -10 5z"/>
<path d="M18560 13310 c0 -5 5 -10 10 -10 6 0 10 5 10 10 0 6 -4 10 -10 10 -5
0 -10 -4 -10 -10z"/>
<path d="M18600 13295 c0 -8 -6 -14 -12 -12 -7 1 -12 -4 -10 -10 1 -7 -4 -13
-10 -13 -9 0 -8 -4 2 -10 12 -8 10 -10 -10 -11 -16 -1 -19 -3 -8 -6 24 -6 30
-32 13 -49 -20 -21 -19 -30 2 -13 13 11 17 11 21 1 5 -17 31 -42 44 -42 5 0 8
6 6 13 -3 6 -10 12 -17 12 -11 0 -31 23 -31 37 0 4 7 5 15 2 8 -4 15 -1 15 5
0 6 -9 11 -20 11 -21 0 -28 24 -10 35 8 5 8 11 0 20 -9 11 -7 12 9 8 16 -4 21
-1 21 16 0 11 -4 21 -10 21 -5 0 -10 -7 -10 -15z"/>
<path d="M18516 13283 c-6 -14 -5 -15 5 -6 7 7 10 15 7 18 -3 3 -9 -2 -12 -12z"/>
<path d="M18545 13280 c3 -5 8 -10 11 -10 2 0 4 5 4 10 0 6 -5 10 -11 10 -5 0
-7 -4 -4 -10z"/>
<path d="M18480 13269 c0 -5 5 -7 10 -4 6 3 10 8 10 11 0 2 -4 4 -10 4 -5 0
-10 -5 -10 -11z"/>
<path d="M18500 13219 c0 -5 5 -7 10 -4 6 3 10 8 10 11 0 2 -4 4 -10 4 -5 0
-10 -5 -10 -11z"/>
<path d="M18488 13193 c7 -3 16 -2 19 1 4 3 -2 6 -13 5 -11 0 -14 -3 -6 -6z"/>
<path d="M18633 13185 c-10 -10 -9 -16 1 -24 15 -13 26 -5 26 21 0 21 -10 23
-27 3z"/>
<path d="M18519 13176 c-1 -3 -2 -11 -3 -17 0 -6 -9 -17 -19 -24 -10 -7 -15
-15 -10 -18 12 -7 55 50 43 58 -5 3 -11 4 -11 1z"/>
<path d="M18535 13110 c4 -6 11 -8 16 -5 14 9 11 15 -7 15 -8 0 -12 -5 -9 -10z"/>
<path d="M18490 13092 c0 -4 14 -9 32 -10 37 -3 35 2 -4 12 -16 3 -28 3 -28
-2z"/>
<path d="M18550 13060 c0 -5 7 -10 15 -10 8 0 15 5 15 10 0 6 -7 10 -15 10 -8
0 -15 -4 -15 -10z"/>
<path d="M9968 11603 c23 -2 59 -2 80 0 20 2 1 4 -43 4 -44 0 -61 -2 -37 -4z"/>
<path d="M9938 11403 c7 -3 16 -2 19 1 4 3 -2 6 -13 5 -11 0 -14 -3 -6 -6z"/>
<path d="M13770 12441 l-23 -99 -54 -6 c-110 -13 -170 -55 -203 -143 -19 -51
-92 -330 -341 -1308 -55 -214 -103 -401 -108 -415 -6 -14 -26 -86 -46 -160
-20 -74 -41 -150 -47 -167 l-10 -33 -205 0 -205 0 5 -22 c3 -13 13 -66 23
-118 29 -161 263 -1313 268 -1317 6 -6 2 -23 171 662 486 1973 661 2664 677
2681 7 6 158 10 158 4 0 -3 16 -5 35 -6 19 0 35 2 35 5 0 9 124 6 139 -3 10
-7 12 -5 6 5 -7 11 -6 12 7 2 8 -7 18 -10 21 -6 10 9 61 11 67 2 3 -4 24 -4
47 0 23 5 47 5 54 0 7 -4 20 -4 30 1 9 5 27 7 40 4 25 -5 63 -5 137 -1 23 2
42 -1 42 -6 0 -5 8 -6 18 -2 19 8 192 13 192 5 0 -3 32 -5 70 -5 39 0 70 4 70
9 0 6 5 5 12 -2 8 -8 17 -8 32 0 11 6 21 7 23 2 2 -5 29 -8 60 -6 117 5 313 5
319 0 3 -3 21 -2 40 2 39 9 47 0 60 -65 4 -22 9 -35 11 -30 2 6 -30 150 -71
320 l-73 310 -730 3 -729 2 -24 -99z m-1105 -2441 c0 -80 -1 -85 -23 -88 -17
-3 -22 2 -23 20 -1 23 -1 23 -9 -2 -6 -18 -9 -4 -10 50 -3 65 -4 70 -10 35 -7
-39 -7 -39 -9 16 l-1 56 43 -1 42 -1 0 -85z m31 65 c-2 -37 -16 -43 -16 -7 0
18 4 32 8 32 5 0 8 -11 8 -25z m61 -65 c-1 -49 -5 -90 -9 -90 -5 0 -8 41 -8
90 0 52 4 90 10 90 6 0 9 -37 7 -90z m58 63 c0 -15 -7 -28 -15 -31 -13 -3 -12
-2 0 7 9 6 10 11 3 11 -9 0 -11 15 -4 38 1 1 5 2 9 2 5 0 8 -12 7 -27z"/>
<path d="M12643 10000 c0 -25 2 -35 4 -22 2 12 2 32 0 45 -2 12 -4 2 -4 -23z"/>
<path d="M12638 9923 c7 -3 16 -2 19 1 4 3 -2 6 -13 5 -11 0 -14 -3 -6 -6z"/>
<path d="M12151 11914 c0 -11 3 -14 6 -6 3 7 2 16 -1 19 -3 4 -6 -2 -5 -13z"/>
<path d="M9988 11203 c6 -2 18 -2 25 0 6 3 1 5 -13 5 -14 0 -19 -2 -12 -5z"/>
</g>
</svg>
