<?xml version="1.0" standalone="no"?>
<!DOCTYPE svg PUBLIC "-//W3C//DTD SVG 20010904//EN"
 "http://www.w3.org/TR/2001/REC-SVG-20010904/DTD/svg10.dtd">
<svg version="1.0" xmlns="http://www.w3.org/2000/svg"
 width="2000.000000pt" height="2000.000000pt" viewBox="0 0 2000.000000 2000.000000"
 preserveAspectRatio="xMidYMid meet">
<metadata>
Created by potrace 1.11, written by Peter Selinger 2001-2013
</metadata>
<g transform="translate(0.000000,2000.000000) scale(0.100000,-0.100000)"
fill="#000000" stroke="none">
<path d="M9535 19239 c-1677 -86 -3295 -624 -4693 -1562 -1207 -808 -2210
-1899 -2927 -3182 -194 -348 -432 -863 -576 -1245 -785 -2096 -785 -4404 0
-6500 144 -382 382 -897 576 -1245 846 -1513 2077 -2744 3590 -3590 348 -194
863 -432 1245 -576 2096 -785 4404 -785 6500 0 382 144 897 382 1245 576 1513
846 2744 2077 3590 3590 194 348 432 863 576 1245 785 2096 785 4404 0 6500
-144 382 -382 897 -576 1245 -846 1513 -2077 2744 -3590 3590 -216 120 -627
322 -865 423 -1025 435 -2071 675 -3190 732 -220 11 -680 11 -905 -1z m-5045
-7714 l0 -1065 995 0 995 0 0 1065 0 1065 730 0 730 0 0 -2910 0 -2910 -730 0
-730 0 0 1295 0 1295 -995 0 -995 0 0 -1295 0 -1295 -730 0 -730 0 0 2910 0
2910 730 0 730 0 0 -1065z m7932 -925 c218 -1064 397 -1939 398 -1945 0 -5 4
-3 9 5 4 8 225 885 491 1948 l482 1932 722 0 721 0 459 -1943 c253 -1068 462
-1946 466 -1950 4 -4 21 59 39 140 17 81 206 958 420 1948 l388 1800 735 3
735 2 -117 -462 c-64 -255 -395 -1564 -736 -2910 l-618 -2448 -798 0 c-439 0
-798 2 -798 4 0 4 -886 3427 -921 3560 -6 21 -12 36 -14 35 -2 -2 -193 -760
-425 -1684 -232 -924 -435 -1733 -452 -1797 l-31 -118 -796 0 -797 0 -618
2448 c-341 1346 -672 2655 -736 2910 l-117 462 755 -2 756 -3 398 -1935z"/>
</g>
</svg>
